# Created by FreeCAD <http://www.freecadweb.org>
v 2250.000000 -50.000000 1500.000000
v 2250.000000 -50.000000 1550.000000
v 2750.000000 -50.000000 1500.000000
v 2750.000000 -50.000000 1550.000000
v 2250.000000 -550.000000 1550.000000
v 2250.000000 -550.000000 1500.000000
v 2750.000000 -550.000000 1500.000000
v 2750.000000 -550.000000 1550.000000
v 2250.000000 -50.000000 1800.000000
v 2300.000000 -50.000000 1800.000000
v 2250.000000 -50.000000 1000.000000
v 2300.000000 -50.000000 1000.000000
v 2300.000000 -550.000000 1800.000000
v 2250.000000 -550.000000 1800.000000
v 2250.000000 -550.000000 1000.000000
v 2300.000000 -550.000000 1000.000000
v 2700.000000 -50.000000 1000.000000
v 2700.000000 -50.000000 1800.000000
v 2750.000000 -50.000000 1000.000000
v 2750.000000 -50.000000 1800.000000
v 2700.000000 -550.000000 1800.000000
v 2700.000000 -550.000000 1000.000000
v 2750.000000 -550.000000 1000.000000
v 2750.000000 -550.000000 1800.000000
v 2250.000000 -50.000000 1000.000000
v 2250.000000 -50.000000 1800.000000
v 2250.000000 -0.000000 1000.000000
v 2250.000000 -0.000000 1800.000000
v 2750.000000 -0.000000 1800.000000
v 2750.000000 -50.000000 1800.000000
v 2750.000000 -50.000000 1000.000000
v 2750.000000 -0.000000 1000.000000
v 2250.000000 -550.000000 1650.000000
v 2250.000000 -500.000000 1650.000000
v 2250.000000 -550.000000 1550.000000
v 2250.000000 -500.000000 1550.000000
v 2750.000000 -500.000000 1650.000000
v 2750.000000 -550.000000 1650.000000
v 2750.000000 -550.000000 1550.000000
v 2750.000000 -500.000000 1550.000000
v 650.000000 -2200.000000 1900.000000
v 650.000000 -2200.000000 1950.000000
v 650.000000 -1000.000000 1900.000000
v 650.000000 -1000.000000 1950.000000
v 1300.000000 -2200.000000 1950.000000
v 1300.000000 -2200.000000 1900.000000
v 1300.000000 -1000.000000 1900.000000
v 1300.000000 -1000.000000 1950.000000
v 650.000000 -2200.000000 950.000000
v 650.000000 -2200.000000 1900.000000
v 650.000000 -2150.000000 950.000000
v 650.000000 -2150.000000 1900.000000
v 1300.000000 -2200.000000 1900.000000
v 1300.000000 -2200.000000 950.000000
v 1300.000000 -2150.000000 950.000000
v 1300.000000 -2150.000000 1900.000000
v 650.000000 -1050.000000 1900.000000
v 650.000000 -1000.000000 1900.000000
v 650.000000 -1050.000000 950.000000
v 650.000000 -1000.000000 950.000000
v 1300.000000 -1000.000000 1900.000000
v 1300.000000 -1050.000000 1900.000000
v 1300.000000 -1050.000000 950.000000
v 1300.000000 -1000.000000 950.000000
v 1450.000000 0.000000 950.000000
v 1450.000000 -800.000000 950.000000
v 1450.000000 0.000000 1000.000000
v 1450.000000 -800.000000 1000.000000
v 3450.000000 -800.000000 950.000000
v 3450.000000 0.000000 950.000000
v 3450.000000 0.000000 1000.000000
v 3450.000000 -800.000000 1000.000000
v 650.000000 -3000.000000 950.000000
v 650.000000 -3000.000000 1000.000000
v 650.000000 0.000000 950.000000
v 650.000000 0.000000 1000.000000
v 1450.000000 -3000.000000 1000.000000
v 1450.000000 -3000.000000 950.000000
v 1450.000000 0.000000 950.000000
v 1450.000000 0.000000 1000.000000
vn 0.000000 1.000000 0.000000
vn 0.000000 1.000000 -0.000000
vn 0.000000 -1.000000 0.000000
vn 0.000000 -1.000000 0.000000
vn -1.000000 0.000000 0.000000
vn -1.000000 0.000000 0.000000
vn 1.000000 0.000000 0.000000
vn 1.000000 -0.000000 0.000000
vn -0.000000 -0.000000 -1.000000
vn 0.000000 0.000000 -1.000000
vn 0.000000 -0.000000 1.000000
vn 0.000000 0.000000 1.000000
vn -0.000000 1.000000 0.000000
vn 0.000000 1.000000 0.000000
vn -0.000000 -1.000000 0.000000
vn 0.000000 -1.000000 -0.000000
vn 0.000000 0.000000 1.000000
vn -0.000000 0.000000 1.000000
vn 0.000000 0.000000 -1.000000
vn 0.000000 0.000000 -1.000000
vn -1.000000 0.000000 0.000000
vn -1.000000 -0.000000 0.000000
vn 1.000000 0.000000 0.000000
vn 1.000000 0.000000 0.000000
vn 0.000000 1.000000 0.000000
vn -0.000000 1.000000 0.000000
vn 0.000000 -1.000000 0.000000
vn -0.000000 -1.000000 -0.000000
vn 0.000000 0.000000 1.000000
vn -0.000000 0.000000 1.000000
vn 0.000000 0.000000 -1.000000
vn 0.000000 0.000000 -1.000000
vn -1.000000 0.000000 0.000000
vn -1.000000 -0.000000 0.000000
vn 1.000000 0.000000 0.000000
vn 1.000000 0.000000 0.000000
vn -1.000000 0.000000 0.000000
vn -1.000000 0.000000 0.000000
vn 1.000000 0.000000 0.000000
vn 1.000000 0.000000 0.000000
vn 0.000000 0.000000 1.000000
vn 0.000000 -0.000000 1.000000
vn 0.000000 0.000000 -1.000000
vn -0.000000 -0.000000 -1.000000
vn 0.000000 -1.000000 0.000000
vn 0.000000 -1.000000 0.000000
vn 0.000000 1.000000 0.000000
vn 0.000000 1.000000 -0.000000
vn -1.000000 0.000000 0.000000
vn -1.000000 0.000000 0.000000
vn 1.000000 0.000000 0.000000
vn 1.000000 0.000000 0.000000
vn 0.000000 -0.000000 1.000000
vn 0.000000 0.000000 1.000000
vn 0.000000 -0.000000 -1.000000
vn -0.000000 0.000000 -1.000000
vn 0.000000 -1.000000 0.000000
vn 0.000000 -1.000000 0.000000
vn 0.000000 1.000000 0.000000
vn 0.000000 1.000000 -0.000000
vn -1.000000 0.000000 0.000000
vn -1.000000 0.000000 0.000000
vn 1.000000 0.000000 0.000000
vn 1.000000 -0.000000 0.000000
vn 0.000000 -1.000000 0.000000
vn 0.000000 -1.000000 0.000000
vn 0.000000 1.000000 0.000000
vn 0.000000 1.000000 0.000000
vn 0.000000 0.000000 -1.000000
vn 0.000000 0.000000 -1.000000
vn 0.000000 0.000000 1.000000
vn 0.000000 0.000000 1.000000
vn -1.000000 0.000000 0.000000
vn -1.000000 0.000000 0.000000
vn 1.000000 0.000000 0.000000
vn 1.000000 0.000000 0.000000
vn 0.000000 -0.000000 1.000000
vn 0.000000 0.000000 1.000000
vn 0.000000 -0.000000 -1.000000
vn -0.000000 0.000000 -1.000000
vn 0.000000 -1.000000 0.000000
vn 0.000000 -1.000000 0.000000
vn 0.000000 1.000000 0.000000
vn 0.000000 1.000000 -0.000000
vn -1.000000 0.000000 0.000000
vn -1.000000 0.000000 0.000000
vn 1.000000 0.000000 0.000000
vn 1.000000 0.000000 0.000000
vn 0.000000 -0.000000 1.000000
vn 0.000000 0.000000 1.000000
vn 0.000000 -0.000000 -1.000000
vn -0.000000 0.000000 -1.000000
vn 0.000000 -1.000000 0.000000
vn 0.000000 -1.000000 0.000000
vn 0.000000 1.000000 0.000000
vn 0.000000 1.000000 -0.000000
vn -1.000000 0.000000 0.000000
vn -1.000000 0.000000 0.000000
vn 1.000000 0.000000 0.000000
vn 1.000000 -0.000000 0.000000
vn 0.000000 -1.000000 0.000000
vn 0.000000 -1.000000 0.000000
vn 0.000000 1.000000 0.000000
vn 0.000000 1.000000 0.000000
vn 0.000000 0.000000 -1.000000
vn 0.000000 0.000000 -1.000000
vn 0.000000 0.000000 1.000000
vn 0.000000 0.000000 1.000000
vn -1.000000 0.000000 0.000000
vn -1.000000 0.000000 0.000000
vn 1.000000 0.000000 0.000000
vn 1.000000 -0.000000 0.000000
vn 0.000000 -1.000000 0.000000
vn 0.000000 -1.000000 0.000000
vn 0.000000 1.000000 0.000000
vn 0.000000 1.000000 0.000000
vn 0.000000 0.000000 -1.000000
vn 0.000000 0.000000 -1.000000
vn 0.000000 0.000000 1.000000
vn 0.000000 0.000000 1.000000
g as1
f 1//1 2//1 3//1
f 3//2 2//2 4//2
f 5//3 6//3 7//3
f 5//4 7//4 8//4
f 6//5 5//5 1//5
f 1//6 5//6 2//6
f 8//7 7//7 3//7
f 8//8 3//8 4//8
f 3//9 7//9 1//9
f 1//10 7//10 6//10
f 8//11 4//11 2//11
f 8//12 2//12 5//12
g as2
f 9//13 10//13 11//13
f 11//14 10//14 12//14
f 13//15 14//15 15//15
f 13//16 15//16 16//16
f 14//17 13//17 9//17
f 9//18 13//18 10//18
f 16//19 15//19 11//19
f 16//20 11//20 12//20
f 11//21 15//21 9//21
f 9//22 15//22 14//22
f 16//23 12//23 10//23
f 16//24 10//24 13//24
g as3
f 17//25 18//25 19//25
f 18//26 20//26 19//26
f 21//27 22//27 23//27
f 24//28 21//28 23//28
f 21//29 24//29 18//29
f 18//30 24//30 20//30
f 23//31 22//31 17//31
f 23//32 17//32 19//32
f 17//33 22//33 18//33
f 18//34 22//34 21//34
f 23//35 19//35 20//35
f 23//36 20//36 24//36
g as4
f 25//37 26//37 27//37
f 26//38 28//38 27//38
f 29//39 30//39 31//39
f 29//40 31//40 32//40
f 26//41 30//41 28//41
f 30//42 29//42 28//42
f 31//43 25//43 27//43
f 32//44 31//44 27//44
f 25//45 31//45 26//45
f 26//46 31//46 30//46
f 32//47 27//47 28//47
f 32//48 28//48 29//48
g as5
f 33//49 34//49 35//49
f 35//50 34//50 36//50
f 37//51 38//51 39//51
f 37//52 39//52 40//52
f 38//53 37//53 33//53
f 33//54 37//54 34//54
f 40//55 39//55 35//55
f 40//56 35//56 36//56
f 35//57 39//57 33//57
f 33//58 39//58 38//58
f 40//59 36//59 34//59
f 40//60 34//60 37//60
g box_part_1
f 41//61 42//61 43//61
f 43//62 42//62 44//62
f 45//63 46//63 47//63
f 45//64 47//64 48//64
f 46//65 45//65 41//65
f 41//66 45//66 42//66
f 48//67 47//67 43//67
f 48//68 43//68 44//68
f 41//69 43//69 46//69
f 43//70 47//70 46//70
f 44//71 42//71 45//71
f 48//72 44//72 45//72
g Box006
f 49//73 50//73 51//73
f 50//74 52//74 51//74
f 53//75 54//75 55//75
f 56//76 53//76 55//76
f 53//77 56//77 50//77
f 50//78 56//78 52//78
f 55//79 54//79 49//79
f 55//80 49//80 51//80
f 49//81 54//81 50//81
f 50//82 54//82 53//82
f 55//83 51//83 52//83
f 55//84 52//84 56//84
g Box007
f 57//85 58//85 59//85
f 59//86 58//86 60//86
f 61//87 62//87 63//87
f 61//88 63//88 64//88
f 62//89 61//89 57//89
f 57//90 61//90 58//90
f 64//91 63//91 59//91
f 64//92 59//92 60//92
f 59//93 63//93 57//93
f 57//94 63//94 62//94
f 64//95 60//95 58//95
f 64//96 58//96 61//96
g TischPlatte
f 65//97 66//97 67//97
f 66//98 68//98 67//98
f 69//99 70//99 71//99
f 72//100 69//100 71//100
f 69//101 72//101 66//101
f 66//102 72//102 68//102
f 71//103 70//103 65//103
f 71//104 65//104 67//104
f 65//105 70//105 66//105
f 66//106 70//106 69//106
f 71//107 67//107 68//107
f 71//108 68//108 72//108
g TischPlatte2
f 73//109 74//109 75//109
f 75//110 74//110 76//110
f 77//111 78//111 79//111
f 77//112 79//112 80//112
f 73//113 78//113 74//113
f 78//114 77//114 74//114
f 79//115 75//115 76//115
f 80//116 79//116 76//116
f 75//117 79//117 73//117
f 73//118 79//118 78//118
f 80//119 76//119 74//119
f 80//120 74//120 77//120
