# Created by FreeCAD <http://www.freecadweb.org>
v 1200.000000 0.000000 400.000000
v 1200.000000 0.000000 410.000000
v 1200.000000 1100.000000 400.000000
v 1200.000000 1100.000000 410.000000
v 2100.000000 0.000000 410.000000
v 2100.000000 0.000000 400.000000
v 2100.000000 1100.000000 400.000000
v 2100.000000 1100.000000 410.000000
vn -1.000000 0.000000 0.000000
vn -1.000000 0.000000 0.000000
vn 1.000000 0.000000 0.000000
vn 1.000000 -0.000000 0.000000
vn 0.000000 -1.000000 0.000000
vn 0.000000 -1.000000 0.000000
vn 0.000000 1.000000 0.000000
vn 0.000000 1.000000 0.000000
vn 0.000000 0.000000 -1.000000
vn 0.000000 0.000000 -1.000000
vn 0.000000 0.000000 1.000000
vn 0.000000 0.000000 1.000000
f 1//1 2//1 3//1
f 3//2 2//2 4//2
f 5//3 6//3 7//3
f 5//4 7//4 8//4
f 6//5 5//5 1//5
f 1//6 5//6 2//6
f 8//7 7//7 3//7
f 8//8 3//8 4//8
f 1//9 3//9 6//9
f 3//10 7//10 6//10
f 4//11 2//11 5//11
f 8//12 4//12 5//12
